<mxfile host="app.diagrams.net" modified="2020-10-09T12:58:46.723Z" agent="5.0 (Windows NT 10.0; Win64; x64) AppleWebKit/537.36 (KHTML, like Gecko) Chrome/86.0.4240.75 Safari/537.36" etag="9TPnJ-4thxWz0ExPkUHW" version="13.7.9" type="gitlab">
  <diagram id="hAnzvrFehZ6wKq_byTHN" name="Page-1">
    <mxGraphModel dx="1240" dy="689" grid="0" gridSize="10" guides="1" tooltips="1" connect="1" arrows="1" fold="1" page="1" pageScale="1" pageWidth="1169" pageHeight="827" background="#ffffff" math="0" shadow="0" extFonts="Permanent Marker^https://fonts.googleapis.com/css?family=Permanent+Marker">
      <root>
        <mxCell id="0" />
        <mxCell id="1" parent="0" />
        <mxCell id="9zWFp66QjIJX7NVRdvDP-12" value="" style="rounded=0;whiteSpace=wrap;html=1;rotation=90;" parent="1" vertex="1">
          <mxGeometry x="452" y="308.56" width="575.5" height="188.38" as="geometry" />
        </mxCell>
        <mxCell id="tgZ7G9DhuxtUKycxwcGr-5" value="Créer un compte" style="ellipse;whiteSpace=wrap;html=1;" parent="1" vertex="1">
          <mxGeometry x="339" y="56" width="120" height="80" as="geometry" />
        </mxCell>
        <mxCell id="tgZ7G9DhuxtUKycxwcGr-7" value="" style="endArrow=none;html=1;entryX=0.064;entryY=0.758;entryDx=0;entryDy=0;entryPerimeter=0;exitX=0.5;exitY=0.5;exitDx=0;exitDy=0;exitPerimeter=0;" parent="1" source="337YRapYeEFcBrLyCYY4-6" target="9zWFp66QjIJX7NVRdvDP-7" edge="1">
          <mxGeometry width="50" height="50" relative="1" as="geometry">
            <mxPoint x="183" y="308" as="sourcePoint" />
            <mxPoint x="290" y="170" as="targetPoint" />
          </mxGeometry>
        </mxCell>
        <mxCell id="tgZ7G9DhuxtUKycxwcGr-8" value="" style="endArrow=none;html=1;entryX=0;entryY=0.5;entryDx=0;entryDy=0;exitX=0.5;exitY=0.5;exitDx=0;exitDy=0;exitPerimeter=0;" parent="1" source="337YRapYeEFcBrLyCYY4-6" target="tgZ7G9DhuxtUKycxwcGr-12" edge="1">
          <mxGeometry width="50" height="50" relative="1" as="geometry">
            <mxPoint x="185" y="335" as="sourcePoint" />
            <mxPoint x="296" y="265" as="targetPoint" />
          </mxGeometry>
        </mxCell>
        <mxCell id="tgZ7G9DhuxtUKycxwcGr-12" value="Consulter son &lt;br&gt;compte" style="ellipse;whiteSpace=wrap;html=1;" parent="1" vertex="1">
          <mxGeometry x="339" y="241" width="120" height="80" as="geometry" />
        </mxCell>
        <mxCell id="tgZ7G9DhuxtUKycxwcGr-13" value="" style="endArrow=none;html=1;exitX=0.5;exitY=0.5;exitDx=0;exitDy=0;exitPerimeter=0;" parent="1" source="337YRapYeEFcBrLyCYY4-6" target="tgZ7G9DhuxtUKycxwcGr-18" edge="1">
          <mxGeometry width="50" height="50" relative="1" as="geometry">
            <mxPoint x="170" y="383" as="sourcePoint" />
            <mxPoint x="291" y="363" as="targetPoint" />
          </mxGeometry>
        </mxCell>
        <mxCell id="tgZ7G9DhuxtUKycxwcGr-14" value="" style="endArrow=none;html=1;exitX=0.5;exitY=0.5;exitDx=0;exitDy=0;exitPerimeter=0;" parent="1" source="337YRapYeEFcBrLyCYY4-6" target="tgZ7G9DhuxtUKycxwcGr-19" edge="1">
          <mxGeometry width="50" height="50" relative="1" as="geometry">
            <mxPoint x="173" y="382" as="sourcePoint" />
            <mxPoint x="264" y="452" as="targetPoint" />
          </mxGeometry>
        </mxCell>
        <mxCell id="tgZ7G9DhuxtUKycxwcGr-18" value="Choisir jeu&lt;br&gt;(Attendre autres joueurs)" style="ellipse;whiteSpace=wrap;html=1;" parent="1" vertex="1">
          <mxGeometry x="339" y="426" width="120" height="80" as="geometry" />
        </mxCell>
        <mxCell id="tgZ7G9DhuxtUKycxwcGr-19" value="Gestion BDD&lt;br&gt;Admin only" style="ellipse;whiteSpace=wrap;html=1;" parent="1" vertex="1">
          <mxGeometry x="339" y="523" width="120" height="80" as="geometry" />
        </mxCell>
        <mxCell id="tgZ7G9DhuxtUKycxwcGr-20" value="" style="endArrow=none;html=1;entryX=0;entryY=0.5;entryDx=0;entryDy=0;exitX=0.5;exitY=0.5;exitDx=0;exitDy=0;exitPerimeter=0;" parent="1" source="337YRapYeEFcBrLyCYY4-6" target="9zWFp66QjIJX7NVRdvDP-3" edge="1">
          <mxGeometry width="50" height="50" relative="1" as="geometry">
            <mxPoint x="169" y="494" as="sourcePoint" />
            <mxPoint x="347" y="681" as="targetPoint" />
          </mxGeometry>
        </mxCell>
        <mxCell id="tgZ7G9DhuxtUKycxwcGr-21" value="Poser une carte" style="ellipse;whiteSpace=wrap;html=1;" parent="1" vertex="1">
          <mxGeometry x="676.8" y="363" width="120" height="80" as="geometry" />
        </mxCell>
        <mxCell id="tgZ7G9DhuxtUKycxwcGr-23" value="Annoncer Belote" style="ellipse;whiteSpace=wrap;html=1;" parent="1" vertex="1">
          <mxGeometry x="676.8" y="478" width="120" height="80" as="geometry" />
        </mxCell>
        <mxCell id="tgZ7G9DhuxtUKycxwcGr-24" value="Appeler 1er tour" style="ellipse;whiteSpace=wrap;html=1;" parent="1" vertex="1">
          <mxGeometry x="674.8" y="137" width="120" height="80" as="geometry" />
        </mxCell>
        <mxCell id="tgZ7G9DhuxtUKycxwcGr-26" value="Jeu" style="text;html=1;strokeColor=none;fillColor=none;align=center;verticalAlign=middle;whiteSpace=wrap;rounded=0;" parent="1" vertex="1">
          <mxGeometry x="723" y="86" width="40" height="20" as="geometry" />
        </mxCell>
        <mxCell id="tgZ7G9DhuxtUKycxwcGr-29" value="" style="endArrow=none;html=1;exitX=1;exitY=0.5;exitDx=0;exitDy=0;entryX=0.5;entryY=1;entryDx=0;entryDy=0;" parent="1" source="tgZ7G9DhuxtUKycxwcGr-18" target="9zWFp66QjIJX7NVRdvDP-12" edge="1">
          <mxGeometry width="50" height="50" relative="1" as="geometry">
            <mxPoint x="645" y="421" as="sourcePoint" />
            <mxPoint x="612" y="496" as="targetPoint" />
          </mxGeometry>
        </mxCell>
        <mxCell id="tgZ7G9DhuxtUKycxwcGr-31" value="" style="endArrow=none;html=1;exitX=0.5;exitY=0;exitDx=0;exitDy=0;entryX=0;entryY=0.5;entryDx=0;entryDy=0;" parent="1" source="9zWFp66QjIJX7NVRdvDP-12" target="tgZ7G9DhuxtUKycxwcGr-32" edge="1">
          <mxGeometry width="50" height="50" relative="1" as="geometry">
            <mxPoint x="905.5" y="382" as="sourcePoint" />
            <mxPoint x="935" y="448" as="targetPoint" />
          </mxGeometry>
        </mxCell>
        <mxCell id="tgZ7G9DhuxtUKycxwcGr-32" value="Sauvegarde de&amp;nbsp;&lt;br&gt;la partie (si joueur connecté)" style="ellipse;whiteSpace=wrap;html=1;fillColor=none;" parent="1" vertex="1">
          <mxGeometry x="953" y="363" width="120" height="80" as="geometry" />
        </mxCell>
        <mxCell id="9zWFp66QjIJX7NVRdvDP-3" value="Se déconnecter" style="ellipse;whiteSpace=wrap;html=1;" parent="1" vertex="1">
          <mxGeometry x="339" y="620" width="120" height="80" as="geometry" />
        </mxCell>
        <mxCell id="9zWFp66QjIJX7NVRdvDP-4" value="" style="endArrow=none;html=1;entryX=0.042;entryY=0.763;entryDx=0;entryDy=0;entryPerimeter=0;exitX=0.5;exitY=0.5;exitDx=0;exitDy=0;exitPerimeter=0;" parent="1" source="337YRapYeEFcBrLyCYY4-6" target="tgZ7G9DhuxtUKycxwcGr-5" edge="1">
          <mxGeometry width="50" height="50" relative="1" as="geometry">
            <mxPoint x="180" y="272" as="sourcePoint" />
            <mxPoint x="232" y="72" as="targetPoint" />
          </mxGeometry>
        </mxCell>
        <mxCell id="9zWFp66QjIJX7NVRdvDP-7" value="Se connecter" style="ellipse;whiteSpace=wrap;html=1;" parent="1" vertex="1">
          <mxGeometry x="339" y="147" width="120" height="80" as="geometry" />
        </mxCell>
        <mxCell id="9zWFp66QjIJX7NVRdvDP-9" value="Appeler à une autre couleur" style="ellipse;whiteSpace=wrap;html=1;" parent="1" vertex="1">
          <mxGeometry x="676.8" y="248" width="120" height="80" as="geometry" />
        </mxCell>
        <mxCell id="9zWFp66QjIJX7NVRdvDP-10" value="Annoncer Rebelote" style="ellipse;whiteSpace=wrap;html=1;" parent="1" vertex="1">
          <mxGeometry x="679.8" y="584" width="120" height="80" as="geometry" />
        </mxCell>
        <mxCell id="9zWFp66QjIJX7NVRdvDP-17" value="" style="endArrow=none;dashed=1;html=1;dashPattern=1 3;strokeWidth=2;exitX=1;exitY=0.5;exitDx=0;exitDy=0;startArrow=open;startFill=0;" parent="1" source="9zWFp66QjIJX7NVRdvDP-7" edge="1">
          <mxGeometry width="50" height="50" relative="1" as="geometry">
            <mxPoint x="555" y="400" as="sourcePoint" />
            <mxPoint x="529" y="187" as="targetPoint" />
          </mxGeometry>
        </mxCell>
        <mxCell id="9zWFp66QjIJX7NVRdvDP-18" value="" style="endArrow=none;dashed=1;html=1;dashPattern=1 3;strokeWidth=2;entryX=0.5;entryY=0;entryDx=0;entryDy=0;" parent="1" target="tgZ7G9DhuxtUKycxwcGr-32" edge="1">
          <mxGeometry width="50" height="50" relative="1" as="geometry">
            <mxPoint x="1013" y="27" as="sourcePoint" />
            <mxPoint x="605" y="350" as="targetPoint" />
          </mxGeometry>
        </mxCell>
        <mxCell id="9zWFp66QjIJX7NVRdvDP-19" value="" style="endArrow=none;dashed=1;html=1;dashPattern=1 3;strokeWidth=2;" parent="1" edge="1">
          <mxGeometry width="50" height="50" relative="1" as="geometry">
            <mxPoint x="525" y="24" as="sourcePoint" />
            <mxPoint x="1014" y="24" as="targetPoint" />
          </mxGeometry>
        </mxCell>
        <mxCell id="9zWFp66QjIJX7NVRdvDP-20" value="" style="endArrow=none;dashed=1;html=1;dashPattern=1 3;strokeWidth=2;" parent="1" edge="1">
          <mxGeometry width="50" height="50" relative="1" as="geometry">
            <mxPoint x="527" y="186" as="sourcePoint" />
            <mxPoint x="527" y="27" as="targetPoint" />
          </mxGeometry>
        </mxCell>
        <mxCell id="9zWFp66QjIJX7NVRdvDP-23" value="&amp;lt;&amp;lt;Include&amp;gt;&amp;gt;" style="text;html=1;strokeColor=none;fillColor=none;align=center;verticalAlign=middle;whiteSpace=wrap;rounded=0;" parent="1" vertex="1">
          <mxGeometry x="741" y="2" width="40" height="20" as="geometry" />
        </mxCell>
        <mxCell id="337YRapYeEFcBrLyCYY4-1" value="Créer un groupe" style="ellipse;whiteSpace=wrap;html=1;" parent="1" vertex="1">
          <mxGeometry x="339" y="329" width="120" height="80" as="geometry" />
        </mxCell>
        <mxCell id="337YRapYeEFcBrLyCYY4-2" value="" style="endArrow=none;html=1;entryX=0;entryY=0.5;entryDx=0;entryDy=0;exitX=0.5;exitY=0.5;exitDx=0;exitDy=0;exitPerimeter=0;" parent="1" source="337YRapYeEFcBrLyCYY4-6" target="337YRapYeEFcBrLyCYY4-1" edge="1">
          <mxGeometry width="50" height="50" relative="1" as="geometry">
            <mxPoint x="191" y="358" as="sourcePoint" />
            <mxPoint x="363.1425109895267" y="469.20516243160864" as="targetPoint" />
          </mxGeometry>
        </mxCell>
        <mxCell id="337YRapYeEFcBrLyCYY4-6" value="Actor" style="shape=umlActor;verticalLabelPosition=bottom;verticalAlign=top;html=1;outlineConnect=0;" parent="1" vertex="1">
          <mxGeometry x="102" y="333" width="36" height="89" as="geometry" />
        </mxCell>
      </root>
    </mxGraphModel>
  </diagram>
</mxfile>
